<?xml version="1.0" encoding="UTF-8"?>
<svg width="748.31mm" height="593.47mm" version="1.1" viewBox="0 0 748.31 593.47" xml:space="preserve" xmlns="http://www.w3.org/2000/svg"><g transform="translate(-154.53 17.009)"><path d="m510.79 517.92-59.177-58.542-13.672-14.619 67.447-69.394 263.61-263.42 11.226 11.16 11.226 11.16v2.3044l-307.46 308.29 85.328 85.363h2.8378l82.641-82.677-54.696-55.358-9.0304-9.9285 24.065-22.025 63.525 63.48 98.058-98.088-60.216-60.265 23.098-23.098 60.264 60.215 79.874-79.837 23.111 23.111-330.71 330.72h-2.1675zm-223.83-237.84-132.42-132.43 23.119-23.119 265.52 265.52-22.322 22.454h-1.4727zm154.73 62.249-7.0556-16.007-9.6452-4.9267-23.607-10.555 32.015-13.991 15.804-32.187 1.424 3.5034 1.4239 3.5035 5.6783 12.27 5.6783 12.27 21.842 9.7696 10.914 5.0976-31.935 14.15-4.9267 9.5053-10.555 23.606zm42.157-71.362-35.013-35.034h-1.5639l-64.241 64.463-0.74106-0.0673-0.741-0.0673-11.782-10.995-11.782-10.995 66.187-66.998-86.949-86.749-45.159-47.127 22.927-22.927 182.35 182.16 45.142 47.104-22.133 22.264h-1.4882zm79.716-38.187-6.8888-15.765-31.818-15.505 31.156-14.457 9.7907-21.889 2.571-5.503 2.5711-5.503 7.8803 16.388 7.8802 16.388 31.385 14.718-31.354 14.549-15.553 32.345h-0.73253zm-84.44-55.655-11.732-11.025 73.765-74.639-85.316-85.351 23.113-23.113 182.86 182.86-23.111 23.111-73.644-73.605-72.727 72.924-1.4731-0.1372zm109.81-115.82-10.922-11.998 48.778-48.997 12.92-10.953 21.844 23.996-48.778 48.997-12.92 10.953z" stroke-width="3.9724"/></g></svg>
