<?xml version="1.0" encoding="UTF-8"?>
<svg width="405.08mm" height="432.5mm" version="1.1" viewBox="0 0 405.08 432.5" xml:space="preserve" xmlns="http://www.w3.org/2000/svg"><g transform="translate(-244.18 127.84)"><path d="m404.12 304.57c-4.9267-0.87765-9.3536-3.4599-12.066-7.038-1.4286-1.8849-3.053-5.2108-3.5799-7.3299-0.53592-2.1553-0.54142-236.99-6e-3 -239.18 0.52779-2.1559 2.4739-5.9977 3.9578-7.813 2.2788-2.7877 5.8427-5.0655 9.5766-6.1208 1.6352-0.46213 3.7252-0.48605 42.466-0.48605h40.746l2.0285 0.6925c3.2297 1.1026 5.4165 2.4657 7.7927 4.8576 1.7347 1.7461 2.3853 2.6425 3.3793 4.6562 2.2 4.4568 2.0039-7.6593 2.0039 123.81 0 131.46 0.19611 119.35-2.0039 123.81-2.1938 4.4442-6.1227 7.79-11.172 9.5138l-2.0285 0.6925-40.217 0.033c-22.119 0.0181-40.514-0.02-40.878-0.0848zm-145.12-79.359c-2.3172-0.48754-6.1823-2.3513-7.9861-3.8509-3.0747-2.5562-5.453-6.387-6.3582-10.241-0.44967-1.9148-0.47234-7.6606-0.47234-119.75 0-112.2 0.0222-117.83 0.47286-119.58 1.6963-6.618 6.48-11.592 13.153-13.675l1.9844-0.61962h81.227l1.9844 0.61962c3.4425 1.0749 5.4499 2.2998 8.0767 4.9282 2.7292 2.731 4.016 4.9599 4.8927 8.4751 0.52406 2.1013 0.5274 2.9801 0.45998 120.78l-0.0679 118.67-0.72026 1.9433c-1.8538 5.0018-5.0031 8.5325-9.5985 10.761-4.3306 2.0999-1.5948 1.983-45.828 1.9587-33.596-0.0184-39.639-0.0787-41.22-0.41124zm292.63 0c-1.0186-0.21432-2.9236-0.90997-4.2333-1.5459-3.8419-1.8654-6.5179-4.4923-8.5214-8.3649-2.1351-4.1269-1.9513 8.1199-1.87-124.59l0.0727-118.67 0.71721-1.934c1.1413-3.0777 2.2533-4.7865 4.6844-7.199 2.5037-2.4845 4.6064-3.7524 7.9598-4.7995l1.9844-0.61962h81.492l2.1167 0.72583c6.5415 2.2432 11.261 7.2972 12.755 13.658 0.45244 1.927 0.47443 7.4712 0.47443 119.63 0 111.96-0.0227 117.7-0.47234 119.62-0.90519 3.8544-3.2835 7.6853-6.3582 10.241-1.8785 1.5617-5.6952 3.3693-8.1734 3.8709-1.7965 0.36364-6.7285 0.41024-41.407 0.39124-33.596-0.0184-39.639-0.0787-41.22-0.41124zm-114.4-235.38c-3.2585-16.625-6.0184-30.348-6.1331-30.496-0.11466-0.14818-12.717-3.3033-28.005-7.0115s-27.797-6.8016-27.798-6.8743c-1e-3 -0.07276 12.454-2.928 27.678-6.3449 15.224-3.417 27.828-6.334 28.009-6.4823 0.18213-0.14948 2.9672-13.682 6.2496-30.366 3.2566-16.553 5.9841-30.096 6.0611-30.096 0.0771 0 2.8074 13.603 6.0675 30.229 3.2601 16.626 6.0706 30.348 6.2456 30.493s12.833 3.2985 28.129 7.0066 27.603 6.8152 27.35 6.9046c-0.25322 0.08945-12.843 2.9422-27.977 6.3393-15.134 3.3972-27.577 6.2623-27.65 6.3668-0.0732 0.10455-2.8117 13.774-6.0854 30.376-3.2737 16.602-6.0118 30.185-6.0846 30.184-0.0728-0.0012-2.7984-13.604-6.0569-30.229z"/></g></svg>
