<?xml version="1.0" encoding="UTF-8"?>
<svg width="406.4mm" height="413.28mm" version="1.1" viewBox="0 0 406.4 413.28" xml:space="preserve" xmlns="http://www.w3.org/2000/svg"><g transform="translate(-37.423 135.83)"><path d="m241.15-135.83c-0.0303 2.7367-1.3597 5.3697-2.0426 7.9612-1.4608 5.5442-2.787 11.164-4.4516 16.621-1.0638 3.4877-2.7638 7.1624-2.7663 10.872h-0.79375l-2.8316 10.893-7.2967 26.658-2.8363 11.661h-0.79375l-2.1167 10.054h-0.79375c-9e-3 2.6644-1.2385 5.4695-1.9858 8.013-0.90424 3.0778-1.4518 6.3442-2.3917 9.4258-1.0736 3.52-2.7663 7.1439-2.7663 10.872h-0.79375l-2.1167 9.2604c2.6625 1.4313 5.0883 4.9168 7.256 7.067 5.3188 5.2759 10.605 10.588 15.875 15.912 17.346 17.523 34.792 34.969 52.315 52.315 7.3449 7.2705 14.663 14.539 21.921 21.885 2.9548 2.9902 7.8188 6.2876 9.7886 9.9776l10.243-3.0545 7.7485-1.9725v-0.79375c3.6536-4.2e-4 7.4085-1.7098 10.872-2.7663 3.3315-1.0164 6.7405-1.8632 10.075-2.9104 11.357-3.5664 23.087-6.5859 34.592-9.514 4.2306-1.0768 8.84-3.5796 13.253-3.5947v-0.79375c6.9732-7.91e-4 13.458-5.0034 20.373-5.0271v-0.79375c8.5809-9.69e-4 16.568-6.2552 25.135-6.35v-0.79375c-6.1202-6.94e-4 -11.816-4.2121-17.992-4.2333v-0.79375c-7.1072-8.08e-4 -13.749-5.0263-20.902-5.0271v-0.79375l-10.319-2.1167v-0.79375c-6.1293-0.02099-11.832-4.2326-17.992-4.2333v-0.79375l-10.893-2.8326-26.672-7.2956-11.119-2.8363v-0.79375c-7.0957-7.43e-4 -13.801-5.0271-20.902-5.0271v-0.79375c-6.1215-0.02096-11.839-4.2327-17.992-4.2333v-0.79375h-1.5875l-2.1167-2.1167c-0.19926-6.5972-4.9529-12.922-5.0271-19.579h-0.79375c0-3.7126-1.695-7.3592-2.7663-10.872-2.47-8.0984-4.2013-16.46-6.6356-24.559-1.2866-4.2808-3.5622-9.3046-3.5627-13.782h-0.79375l-2.7663-10.872-5.25-19.511-2.0379-7.9824h-0.79375l-4.2333-17.992h-0.79375c0-3.6498-1.7059-7.3959-2.7663-10.872-1.2045-3.948-1.9458-8.1037-3.1842-12.072-0.72699-2.3293-1.9597-5.0368-1.987-7.4839h-0.79375m21.784 42.774 0.0882 0.17641-0.0882-0.17641m0.44097 0.35279c-0.6092 2.2205 1.0694 5.8746 1.8841 7.9824 1.5711 4.0649 2.4906 8.7332 3.5527 12.965 2.7998 11.154 6.0048 22.36 9.5005 33.338 1.4687 4.6122 1.761 10.08 4.168 14.344 1.0184 1.8043 2.9518 3.2555 4.412 4.7006 2.6653 2.6379 5.2488 5.3616 7.9375 7.9742 3.8426 3.7338 7.6082 8.7686 12.806 10.652 11.062 4.0073 23.431-3.2145 24.252-15.226 0.76329-11.176-10.254-19.068-17.482-26.041-11.621-11.211-22.988-22.786-34.286-34.313-3.6346-3.7082-7.3329-7.4004-11.037-11.039-1.7336-1.7031-3.8152-3.3134-5.1794-5.3356h-0.52917m-45.244 2.3812c-1.0074 2.4397-4.737 5.0488-6.6881 6.9012-3.705 3.5177-7.1368 7.3244-10.848 10.848-14.387 13.66-27.778 28.389-42.054 42.157-4.7024 4.535-9.309 9.17-13.927 13.817-2.6769 2.6935-5.7552 5.3634-6.0854 9.378-0.38714 4.7062 5.5458 9.0629 8.5402 11.936 9.6051 9.2151 19.145 18.723 28.362 28.34 28.599 29.843 58.532 58.466 87.753 87.687l24.606 24.606c2.3195 2.3196 4.5982 4.6775 6.9159 7.0041 1.0831 1.0872 2.2237 2.7193 3.5939 3.3881v0.52917l-5.3725 5.1888-7.8493 7.9449-1.9403 6.9527-5.0344 17.992-2.9031 10.076-2.0358 8.4667h-0.79375c-9e-3 2.6488-1.2406 5.4004-1.9727 7.9375-0.89825 3.1129-1.4592 6.4011-2.4047 9.5013-0.61991 2.0325-2.8401 5.9722-1.708 7.9612 12.036-12.793 24.803-25.07 37.364-37.347 6.4064-6.2619 12.321-13.331 19.114-19.168 6.1308-5.2682 11.739-11.199 17.451-16.942 2.1184-2.1301 5.5385-4.5971 5.9405-7.7932 0.66883-5.3179-5.5121-9.4542-8.865-12.787-9.7919-9.7334-19.859-19.098-29.623-28.836-28.893-28.816-57.374-58.099-86.568-86.635-8.2959-8.1088-16.313-16.5-24.606-24.606-3.2897-3.2155-9.4329-7.5345-10.906-11.947 1.5424-0.49031 2.7259-2.2761 3.8722-3.3879 3.0427-2.9514 8.464-6.7473 10.193-10.645 2.029-4.5735 2.6734-9.7247 4.0567-14.497 2.6927-9.2891 4.9517-18.856 7.95-28.046 1.895-5.8085 3.6193-11.785 4.9628-17.762 0.62356-2.774 2.0278-5.2833 2.0379-8.2123h-0.52916m-180.71 165.1v0.52917c4.2818 0.04774 9.0962 2.4418 13.229 3.5745 7.7082 2.1125 15.323 4.5228 23.042 6.598 16.271 4.3744 32.375 9.5196 48.66 13.759 11.759 3.0616 23.628 6.238 35.19 9.988 9.2371 2.996 18.869 4.7349 28.046 7.9161 3.6728 1.2732 8.0013 1.3586 10.59 4.6423 2.6563 3.369 3.2636 9.9412 4.3456 14.036 2.9092 11.009 6.0738 21.921 9.2459 32.861 10.462 36.083 19.796 72.702 30.587 108.77 1.6365-2.1566 2.023-6.3499 2.7689-8.952 1.9933-6.9534 3.8835-13.931 5.821-20.901 6.4459-23.187 13.599-46.263 19.575-69.585 1.9578-7.64 4.3002-15.165 6.3755-22.789 0.67931-2.4955 2.8473-6.6282 1.846-9.1914-0.77271-1.978-3.5192-3.7596-4.9783-5.2731-4.3734-4.5364-8.9214-8.9117-13.377-13.367l-85.46-85.46c-1.1156-1.1151-2.3908-2.9279-4.0098-3.2846-2.2394-0.49344-5.4753 1.4696-7.6956 1.9372-7.7684 1.6361-15.419 4.3294-23.04 6.5484-22.902 6.6681-46.171 12.21-69.011 19.097-6.8387 2.062-13.757 3.6553-20.562 5.7698-3.4522 1.0727-7.5712 2.7804-11.188 2.7808m178.33 162.98 0.79375-0.26459c-1.3652-2.021-1.6997-5.0288-2.2053-7.3981-0.73382-3.4392-1.9535-6.9058-2.9265-10.305-3.3539-11.717-6.4964-23.533-10.033-35.213-1.23-4.062-2.2022-8.1773-3.4316-12.247-0.54292-1.797-0.75531-3.2983-2.082-4.7754-6.251-6.9597-12.838-14.446-22.448-15.731-12.793-1.711-21.852 13.618-17.022 24.551 3.0075 6.8072 10.233 12.185 15.465 17.31 10.631 10.414 21.097 21.021 31.567 31.598 2.695 2.7226 5.4072 5.4348 8.1298 8.1298 1.3284 1.3149 3.3144 2.7105 4.1933 4.3456m47.978 2.293 0.0882 0.17641z"/></g></svg>
